<svg width="29" height="20" fill="none" xmlns="http://www.w3.org/2000/svg"><path fill-rule="evenodd" clip-rule="evenodd" d="M10 3.125a4.375 4.375 0 100 8.75 4.375 4.375 0 000-8.75zM4.375 7.5a5.625 5.625 0 1111.25 0 5.625 5.625 0 01-11.25 0z" fill="#9CADF2"/><path fill-rule="evenodd" clip-rule="evenodd" d="M10 13.124a8.125 8.125 0 00-7.037 4.063.625.625 0 11-1.082-.624 9.376 9.376 0 0116.238 0 .625.625 0 11-1.082.625A8.125 8.125 0 0010 13.123z" fill="#9CADF2"/><path fill="#DBE3FF" d="M28 0h1v20h-1z"/></svg>